<svg xml:space="preserve" viewBox="44.2568 47.46835443037975 657.5296 670.8860759493671" y="0px" x="0px" xmlns:xlink="http://www.w3.org/1999/xlink" xmlns="http://www.w3.org/2000/svg" id="Layer_2" version="1.1" style="max-height: 500px" width="657.5296" height="670.8860759493671">
<path d="M596.2,153.8C537.1,94.8,458.5,62.2,375,62.2s-162.1,32.5-221.2,91.6C94.8,212.9,62.2,291.5,62.2,375&#xA;&#9;s32.5,162.1,91.6,221.2c59.1,59.1,137.6,91.6,221.2,91.6s162.1-32.5,221.2-91.6c59.1-59.1,91.6-137.6,91.6-221.2&#xA;&#9;S655.2,212.9,596.2,153.8z M175,175c53.4-53.4,124.4-82.8,200-82.8c75.5,0,146.5,29.4,200,82.8c50.8,50.8,79.9,117.6,82.6,189&#xA;&#9;c-6.2-8.8-13.3-18-20.8-26.6c-15.8-18-43-42.3-83.7-39.2c-20.6,1.6-31.7,9.4-38.8,23.2c-6.5,12.7,1.3,30.1,8.2,20.8&#xA;&#9;c6.9-9.3,16-7,24.2-0.5c13.5,12,18.4,30.3,19,47.7c0.3,40.6-36.3,83.5-54,101.5c-18.2,18.6-47.1,33.1-83.6,43.4&#xA;&#9;c-33.7,9.5-86.4,13.7-122.8,15.9c-36.4,2.2-82,0-107.6-1.4c-18.2-1-39.6-4.2-50.3-5.9C111.6,494.5,92.2,436.3,92.2,375&#xA;&#9;C92.2,299.5,121.6,228.5,175,175z" fill="#006FEF"/>
<path d="M469.9,366.2L415,349.8l-75.2-22.4l0,0L300,315.5c-7.5-2.2-15.4,3.5-14.8,12.3c0.3,4.6,3.6,8.4,8,9.7&#xA;&#9;l23.8,7.1c1.2,0.4,2.3,1,3.2,1.9c2.6,2.8,2.9,6.9,1,9.9l-81.7,127.3c-2.5,3.9-2.5,8.9,0.2,12.6c4.9,6.7,13.9,6.3,18.4,0.8&#xA;&#9;c0.6-0.7,1.4-1.2,2.2-1.4c7-1.4,37.7-7.4,68.3-13.3c9.7-1.9,32.7-6.3,63.8-12.2c0.1,0,2.9-0.3,4.3,1.2c1.2,1.3,1.1,4.2,1,4.7&#xA;&#9;c-0.8,11.4-1.5,22.7-2.3,34.1c-0.1,1-0.2,4.4,2.2,7.8c1.5,2.2,3.8,3.9,6.6,4.6c1,0.3,1.9,0.3,2.7,0.3c6,0,11.1-4.7,11.5-10.7&#xA;&#9;l7.9-119.1l0.6-9.6c0.2-3,3.1-5.1,6-4.2c2.2,0.6,4.8,1.4,7.6,2.3c10.2,3,22.5,6.7,22.5,6.7c1.1,0.3,2.2,0.5,3.3,0.5&#xA;&#9;c5,0,9.5-3.2,11-8.2C479.4,374.4,475.9,368,469.9,366.2z M394.7,442.5l-60.2-19.7c-4-1.3-4.1-6.8-0.2-8.3l63.1-24.1&#xA;&#9;c3-1.1,6.2,1.2,6,4.4l-2.9,43.8C400.2,441.4,397.4,443.3,394.7,442.5z M395.7,372.8l-69.2,26.4c-2.3,0.9-4.4-1.7-3-3.7l25.4-39.5&#xA;&#9;c0.6-1,1.8-1.4,2.9-1.1l43.9,13.1C397.8,368.7,397.9,371.9,395.7,372.8z M304.3,430.8l60.4,19.8c3.9,1.3,3.6,6.9-0.5,7.7l-83.3,16&#xA;&#9;c-3.4,0.7-6-3.1-4.1-6.1l22.9-35.7C300.7,430.9,302.6,430.2,304.3,430.8z" fill="#FF3B28"/>
<path d="M475.8,306.8l-8.8-9.5l-0.4-0.5c-0.8-0.9-0.2-2.3,1-2.3l10.1-0.2c4.7-0.1,6.2-4.3,5.9-9c-0.3-4-3.8-7-7.8-7&#xA;&#9;l-21.7,0.4l-0.4,0c-2.5,0-4.9-1-6.6-2.8l-0.6-0.6c-2.9-3.1-7.6-8.2-13-14c-1.6-1.7-0.7-4.5,1.5-5c8.8-2,16.4-3.8,20.6-4.7&#xA;&#9;c2.3-0.5,4.7,0,6.6,1.3c5.9,4.3,18.3,13.3,18.3,13.3c3.8,2.7,7.7,1.6,10.3-2.3c1.2-1.9,3-3.7,2.5-5.7c-0.4-1.8-1.5-3.5-3.1-4.7&#xA;&#9;l-7.5-5.5l-0.2-0.1c-1-0.7-0.7-2.3,0.5-2.6l0.6-0.1l10.4-2.4c4-0.9,6.7-4.9,5.8-8.9c-1.1-5.2-3.2-8.1-7.9-7l-12.6,2.9l-0.6,0.1&#xA;&#9;c-1.2,0.3-2.1-1-1.5-2l4.9-8.9c2.3-4.1-0.6-7.5-4.9-9.6c-3.6-1.7-8-0.2-9.9,3.3l-10.5,18.9l-0.2,0.3c-1.2,2.2-3.3,3.8-5.8,4.3&#xA;&#9;l-0.8,0.2c-4.2,1-10.9,2.5-18.7,4.3c-2.3,0.5-4.2-1.6-3.5-3.8c2.7-8.7,4.9-16.1,6.2-20.1c0.6-2,2.1-3.7,4-4.5l20.5-9.2&#xA;&#9;c3.9-1.8,5.8-6.4,4.1-10.3c-1.8-4.2-5.1-6.8-9.2-4.9c0,0-4.9,2.1-8.4,3.7c-0.2,0.1-0.5,0.2-0.7,0.3c-1.2,0.5-2.5-0.6-2.1-1.9l3.4-11&#xA;&#9;c1.3-4.1-1-8.4-5.1-9.8c-4.3-1.4-8.4-0.8-9.8,3.5c0,0-2.4,7.7-3.8,12.2l-0.1,0.2c-0.4,1.2-1.9,1.3-2.6,0.3l-4.2-7&#xA;&#9;c-2-3.4-6.4-4.6-9.9-2.6c-4,2.3-6.7,6-4.4,9.9l12.2,20.3c1.1,1.8,1.3,3.9,0.7,5.8c-1.3,4.1-3.7,12-6.5,21.2c-0.5,1.7-2.8,2.3-4,0.9&#xA;&#9;c-6.5-7-12.1-13-15.1-16.2c-1.4-1.5-2.1-3.6-1.9-5.7l2.3-22.4c0.4-4.3-2.6-8.2-6.9-8.7c-4.5-0.5-8.4,1-8.8,5.5c0,0-0.6,5.3-1,9.2&#xA;&#9;c0,0.3-0.1,0.5-0.1,0.7c-0.1,1.3-1.8,1.9-2.7,0.9l-7.8-8.4c-2.9-3.1-7.8-3.3-11-0.5c-3.4,3-4.9,6.9-1.8,10.2c0,0,5.5,5.9,8.7,9.4&#xA;&#9;l0.1,0.1c0.8,0.9,0.2,2.3-1,2.4l-8.2,0.1c-4,0.1-7.2,3.3-7.2,7.3c0,4.6,1.8,8.8,6.4,8.7l23.7-0.4c2.1,0,4,0.8,5.4,2.3&#xA;&#9;c2.8,3,8.2,8.8,14.5,15.6c1.6,1.7,0.7,4.5-1.5,5c-8.9,2-16.4,3.8-20.5,4.7c-2.1,0.5-4.2,0-5.9-1.2l-18.2-13.2&#xA;&#9;c-3.5-2.5-8.4-1.8-11,1.6c-2.7,3.6-3.3,7.8,0.3,10.4c0,0,4.3,3.1,7.4,5.4c0.2,0.1,0.4,0.3,0.6,0.4c1.1,0.8,0.7,2.5-0.6,2.8v0&#xA;&#9;l-11.2,2.6c-4.2,1-6.8,5.1-5.9,9.3c0.9,4.5,3.5,7.7,7.9,6.7c0,0,7.9-1.8,12.5-2.8l0.2,0c1.2-0.3,2.1,1,1.5,2.1l-4,7.2&#xA;&#9;c-1.9,3.5-0.7,7.9,2.7,9.9c3.9,2.3,8.6,2.8,10.8-1.2l11.5-20.7c1-1.8,2.7-3.1,4.7-3.5c4.1-0.9,11.7-2.7,20.7-4.8&#xA;&#9;c2.2-0.5,4.2,1.6,3.5,3.8c-2.7,8.7-5,16.1-6.2,20.3c-0.7,2.3-2.3,4.1-4.5,5c-6.6,3-20.7,9.2-20.7,9.2c-4.2,1.9-5.2,5.9-3.1,10.1&#xA;&#9;c1,2,1.7,4.4,3.7,5c1.8,0.5,3.8,0.5,5.6-0.3l8.5-3.8l0.2-0.1c1.1-0.5,2.3,0.6,2,1.8l-0.2,0.6l-3.1,10.2c-1.2,3.9,0.9,8.2,4.8,9.5&#xA;&#9;c5,1.7,8.6,1.3,10-3.3l3.8-12.4l0.2-0.6c0.4-1.1,1.9-1.3,2.5-0.3l5.2,8.7c2.4,4,6.8,3.2,10.7,0.6c3.3-2.3,4.2-6.8,2.1-10.2&#xA;&#9;L411.9,300l-0.2-0.3c-1.3-2.2-1.6-4.8-0.9-7.2l0.2-0.8c1.3-4.1,3.3-10.8,5.7-18.5c0.7-2.2,3.4-2.8,5-1.1&#xA;&#9;c6.2,6.7,11.5,12.3,14.4,15.5c1.6,1.7,2.4,4,2.1,6.4c-0.7,7.2-2.3,22.5-2.3,22.5c-0.5,4.6,2.5,7.5,7.2,7.7c2.2,0.1,4.7,0.7,6.2-0.7&#xA;&#9;c1.4-1.3,2.3-3,2.5-5l1-9.2l0-0.2c0.1-1.2,1.7-1.7,2.5-0.8l0.4,0.5l7.3,7.8c2.8,3,7.5,3.3,10.6,0.6&#xA;&#9;C477.6,313.7,479.1,310.3,475.8,306.8z" fill="#FFFFFF"/>
<g>
	<g>
		<path d="M894.3,372.3h-37.5V535h-50.1V184.6h87.6c62.6,0,87.6,37.5,87.6,100.1C981.9,342,950.8,372.3,894.3,372.3z&#xA;&#9;&#9;&#9; M869.2,222.1h-12.5v112.6h12.5c42.2,0,62.6-8.2,62.6-50.1C931.8,236,918.9,222.1,869.2,222.1z" fill="#006FEF"/>
		<path d="M1197.1,295.2v127.1c0,70.4-25.4,116.1-96.6,116.1c-71.8,0-96.6-44.8-96.6-116.1V295.2&#xA;&#9;&#9;&#9;c0-71.4,24.8-114.2,96.6-114.2C1171.7,181.1,1197.1,224.8,1197.1,295.2z M1054,282.7v152.1c0,37.5,9,62.6,46.5,62.6&#xA;&#9;&#9;&#9;s46.5-25,46.5-62.6V282.7c0-37.5-9-60.6-46.5-60.6S1054,245.2,1054,282.7z" fill="#006FEF"/>
		<path d="M1415,347.2l12.3,100.1l12.7-100.1l25-162.7h50.1L1452.5,535h-50.1l-25-162.7l-12.5-100.1l-12.5,100.1&#xA;&#9;&#9;&#9;l-25,162.7h-50.1l-62.6-350.4h50.1l25,162.7l12.7,100.1l12.3-100.1l25-162.7h50.1L1415,347.2z" fill="#006FEF"/>
		<path d="M1619.5,535h-77.2V184.6h77.6c73.3,0,100.1,26.6,100.1,100.1v137.7C1720,496.8,1694.2,535,1619.5,535z&#xA;&#9;&#9;&#9; M1618.9,222.1h-26.6v275.3h27.6c53,0,50.1-36,50.1-87.6V297.2C1669.9,249.3,1668.6,222.1,1618.9,222.1z" fill="#006FEF"/>
		<path d="M1813.8,372.3v125.1h87.6V535h-137.7V184.6h137.7v37.5h-87.6v112.6h62.6v37.5H1813.8z" fill="#006FEF"/>
		<path d="M2063.5,359.8l56.3,175.2h-49.7l-50.4-162.7h-37.5V535h-50.1V184.6h62.6c71.4,0,112.6,24.2,112.6,93.9&#xA;&#9;&#9;&#9;C2107.3,319.7,2092.7,349.2,2063.5,359.8z M1994.7,222.1h-12.5v112.6h12.5c40.5,0,62.6-15.4,62.6-56.3S2035.2,222.1,1994.7,222.1z" fill="#006FEF"/>
		<path d="M2304.8,535h-87.6V184.6h75.1c63.2,0,106.8,25.8,106.8,87.6c0,45.6-20.1,64.9-56.7,75.1&#xA;&#9;&#9;&#9;c38.9,12.9,62.6,35.4,62.6,87.6C2404.9,496.6,2366.6,535,2304.8,535z M2354.9,272.2c0-49.5-38.3-50.1-87.6-50.1v112.6h25&#xA;&#9;&#9;&#9;C2333.8,334.7,2354.9,314.4,2354.9,272.2z M2292.3,372.3h-25v125.1h25c43.2,0,62.6-18.8,62.6-62.6S2335.5,372.3,2292.3,372.3z" fill="#006FEF"/>
		<path d="M2533.8,538.7c-77.8,0-100.1-51.6-100.1-128.9V184.6h50.1v225.2c0,46.3,3.7,87.6,50.1,87.6&#xA;&#9;&#9;&#9;s50.1-41.3,50.1-87.6V184.6h50.1v225.2C2633.9,487,2611.6,538.7,2533.8,538.7z" fill="#006FEF"/>
		<path d="M2868.1,295.2v127.1c0,70.4-25.4,116.1-96.6,116.1c-71.8,0-96.6-44.8-96.6-116.1V295.2&#xA;&#9;&#9;&#9;c0-71.4,24.8-114.2,96.6-114.2C2842.7,181.1,2868.1,224.8,2868.1,295.2z M2725,282.7v152.1c0,37.5,9,62.6,46.5,62.6&#xA;&#9;&#9;&#9;s46.5-25,46.5-62.6V282.7c0-37.5-9-60.6-46.5-60.6S2725,245.2,2725,282.7z" fill="#006FEF"/>
		<path d="M2956.5,422.3l-75.1-237.8h50.1l50.1,175.2l50.1-175.2h50.1l-75.1,237.8V535h-50.1V422.3z" fill="#006FEF"/>
	</g>
	<g>
		<path d="M894.3,372.3h-37.5V535h-50.1V184.6h87.6c62.6,0,87.6,37.5,87.6,100.1C981.9,342,950.8,372.3,894.3,372.3z&#xA;&#9;&#9;&#9; M869.2,222.1h-12.5v112.6h12.5c42.2,0,62.6-8.2,62.6-50.1C931.8,236,918.9,222.1,869.2,222.1z" fill="#F4F4F4"/>
		<path d="M1197.1,295.2v127.1c0,70.4-25.4,116.1-96.6,116.1c-71.8,0-96.6-44.8-96.6-116.1V295.2&#xA;&#9;&#9;&#9;c0-71.4,24.8-114.2,96.6-114.2C1171.7,181.1,1197.1,224.8,1197.1,295.2z M1054,282.7v152.1c0,37.5,9,62.6,46.5,62.6&#xA;&#9;&#9;&#9;s46.5-25,46.5-62.6V282.7c0-37.5-9-60.6-46.5-60.6S1054,245.2,1054,282.7z" fill="#F4F4F4"/>
		<path d="M1415,347.2l12.3,100.1l12.7-100.1l25-162.7h50.1L1452.5,535h-50.1l-25-162.7l-12.5-100.1l-12.5,100.1&#xA;&#9;&#9;&#9;l-25,162.7h-50.1l-62.6-350.4h50.1l25,162.7l12.7,100.1l12.3-100.1l25-162.7h50.1L1415,347.2z" fill="#F4F4F4"/>
		<path d="M1619.5,535h-77.2V184.6h77.6c73.3,0,100.1,26.6,100.1,100.1v137.7C1720,496.8,1694.2,535,1619.5,535z&#xA;&#9;&#9;&#9; M1618.9,222.1h-26.6v275.3h27.6c53,0,50.1-36,50.1-87.6V297.2C1669.9,249.3,1668.6,222.1,1618.9,222.1z" fill="#F4F4F4"/>
		<path d="M1813.8,372.3v125.1h87.6V535h-137.7V184.6h137.7v37.5h-87.6v112.6h62.6v37.5H1813.8z" fill="#F4F4F4"/>
		<path d="M2063.5,359.8l56.3,175.2h-49.7l-50.4-162.7h-37.5V535h-50.1V184.6h62.6c71.4,0,112.6,24.2,112.6,93.9&#xA;&#9;&#9;&#9;C2107.3,319.7,2092.7,349.2,2063.5,359.8z M1994.7,222.1h-12.5v112.6h12.5c40.5,0,62.6-15.4,62.6-56.3S2035.2,222.1,1994.7,222.1z" fill="#F4F4F4"/>
		<path d="M2304.8,535h-87.6V184.6h75.1c63.2,0,106.8,25.8,106.8,87.6c0,45.6-20.1,64.9-56.7,75.1&#xA;&#9;&#9;&#9;c38.9,12.9,62.6,35.4,62.6,87.6C2404.9,496.6,2366.6,535,2304.8,535z M2354.9,272.2c0-49.5-38.3-50.1-87.6-50.1v112.6h25&#xA;&#9;&#9;&#9;C2333.8,334.7,2354.9,314.4,2354.9,272.2z M2292.3,372.3h-25v125.1h25c43.2,0,62.6-18.8,62.6-62.6S2335.5,372.3,2292.3,372.3z" fill="#F4F4F4"/>
		<path d="M2533.8,538.7c-77.8,0-100.1-51.6-100.1-128.9V184.6h50.1v225.2c0,46.3,3.7,87.6,50.1,87.6&#xA;&#9;&#9;&#9;s50.1-41.3,50.1-87.6V184.6h50.1v225.2C2633.9,487,2611.6,538.7,2533.8,538.7z" fill="#F4F4F4"/>
		<path d="M2868.1,295.2v127.1c0,70.4-25.4,116.1-96.6,116.1c-71.8,0-96.6-44.8-96.6-116.1V295.2&#xA;&#9;&#9;&#9;c0-71.4,24.8-114.2,96.6-114.2C2842.7,181.1,2868.1,224.8,2868.1,295.2z M2725,282.7v152.1c0,37.5,9,62.6,46.5,62.6&#xA;&#9;&#9;&#9;s46.5-25,46.5-62.6V282.7c0-37.5-9-60.6-46.5-60.6S2725,245.2,2725,282.7z" fill="#F4F4F4"/>
		<path d="M2956.5,422.3l-75.1-237.8h50.1l50.1,175.2l50.1-175.2h50.1l-75.1,237.8V535h-50.1V422.3z" fill="#F4F4F4"/>
	</g>
</g>
</svg>